<svg width="500" height="500" viewBox="0 0 500 500" fill="none" xmlns="http://www.w3.org/2000/svg">
<path d="M442.285 292.578C441.748 297.949 436.816 300.635 432.617 303.076C428.711 305.322 424.805 307.617 420.947 309.863C414.697 313.477 408.496 317.09 402.246 320.703C394.434 325.244 386.67 329.785 378.857 334.277C370.264 339.258 361.67 344.287 353.027 349.268C344.385 354.297 335.742 359.326 327.051 364.355C319.092 368.994 311.182 373.584 303.223 378.223C296.729 381.982 290.283 385.742 283.789 389.502C279.541 391.943 275.293 394.434 271.045 396.875C267.822 398.73 264.795 400.586 261.133 401.66C251.611 404.395 241.064 403.467 232.471 398.486C229.395 396.68 226.27 394.922 223.193 393.115C217.529 389.844 211.914 386.621 206.25 383.35C198.828 379.053 191.406 374.756 183.984 370.508C175.537 365.625 167.041 360.742 158.594 355.859C149.854 350.83 141.113 345.752 132.373 340.723C124.121 335.937 115.869 331.201 107.568 326.416L86.4746 314.258C81.4453 311.328 76.3672 308.447 71.3379 305.518C69.043 304.199 66.748 302.881 64.4531 301.514C60.8398 299.414 57.2754 296.094 57.2754 291.602C57.2754 295.703 57.2754 299.805 57.2266 303.955C57.2266 305.42 57.1289 306.934 57.2266 308.447C57.5195 312.402 60.6445 315.478 63.916 317.432C65.918 318.652 67.9687 319.775 70.0195 320.947C75.293 323.975 80.5664 327.051 85.8398 330.078C93.457 334.473 101.025 338.867 108.643 343.262C117.676 348.486 126.758 353.711 135.791 358.936C145.215 364.404 154.639 369.824 164.111 375.293C173.096 380.469 182.031 385.645 191.016 390.82C198.486 395.117 205.908 399.414 213.379 403.711C218.408 406.641 223.486 409.521 228.516 412.451C231.445 414.111 234.326 416.016 237.5 417.188C247.412 420.801 259.033 420.02 268.164 414.697C271.631 412.695 275.098 410.645 278.564 408.643C284.961 404.932 291.357 401.221 297.705 397.51C306.055 392.676 314.355 387.842 322.705 382.959C332.031 377.539 341.357 372.119 350.635 366.699L378.613 350.439C386.963 345.557 395.312 340.723 403.711 335.84C410.205 332.08 416.699 328.32 423.193 324.512C426.758 322.412 430.371 320.361 433.936 318.262C435.01 317.627 436.133 316.992 437.158 316.26C439.893 314.209 442.041 311.377 442.09 307.813C442.139 306.006 442.09 304.248 442.09 302.441C442.09 298.877 442.09 295.264 442.139 291.699C442.334 292.041 442.334 292.334 442.285 292.578C442.285 292.676 442.285 292.432 442.285 292.578Z" fill="#7A9EFD"/>
<path d="M435.352 282.031C444.629 287.402 444.678 296.143 435.449 301.514L267.285 399.268C258.057 404.639 242.969 404.639 233.691 399.268L64.4043 301.514C55.127 296.143 55.0781 287.402 64.3066 282.031L232.471 184.277C241.699 178.906 256.787 178.906 266.064 184.277L435.352 282.031Z" fill="#E4ECF9"/>
<path d="M254.932 85.2051C259.57 82.5195 263.379 84.7168 263.428 90.0391L263.916 258.887C263.916 264.209 260.156 270.801 255.518 273.486L169.336 323.193C164.697 325.879 160.889 323.682 160.84 318.359L160.352 149.512C160.352 144.189 164.111 137.598 168.799 134.912L254.932 85.2051Z" fill="#4040FF"/>
<path d="M247.217 107.764C248.828 106.836 250.146 107.568 250.146 109.424L250.488 229.834C250.488 231.689 249.17 233.984 247.559 234.912L177.051 275.635C175.439 276.562 174.121 275.83 174.121 273.975L173.779 153.564C173.779 151.709 175.098 149.414 176.709 148.486L247.217 107.764Z" fill="#2A2ABC"/>
<path d="M256.885 84.3262C257.031 84.2773 257.129 84.2285 257.275 84.2285C257.373 84.1797 257.52 84.1797 257.617 84.1309C257.764 84.082 257.91 84.082 258.057 84.082C258.154 84.082 258.203 84.082 258.301 84.0332H258.936C259.131 84.0332 259.375 84.082 259.57 84.1309C259.619 84.1309 259.668 84.1309 259.717 84.1797C259.863 84.2285 260.01 84.2773 260.205 84.3262C260.254 84.3262 260.303 84.375 260.352 84.375C260.547 84.4727 260.742 84.5215 260.889 84.6191L253.662 80.4199C253.662 80.4199 253.613 80.4199 253.613 80.3711C253.467 80.2734 253.32 80.2246 253.174 80.1758C253.125 80.1758 253.125 80.1758 253.076 80.127C253.027 80.127 252.979 80.0781 252.93 80.0781C252.832 80.0293 252.783 80.0293 252.686 79.9805C252.588 79.9805 252.539 79.9316 252.441 79.9316C252.393 79.9316 252.344 79.8828 252.295 79.8828H252.197C252.051 79.834 251.855 79.834 251.66 79.834H250.928C250.83 79.834 250.781 79.834 250.684 79.8828C250.586 79.8828 250.537 79.8828 250.439 79.9316C250.391 79.9316 250.293 79.9805 250.244 79.9805C250.146 79.9805 250 80.0293 249.902 80.0781C249.854 80.0781 249.756 80.0781 249.707 80.127C249.658 80.127 249.561 80.1758 249.512 80.1758C249.316 80.2246 249.121 80.3223 248.926 80.3711C248.877 80.4199 248.779 80.4199 248.73 80.4688C248.682 80.4688 248.633 80.5176 248.633 80.5176C248.291 80.6641 247.949 80.8105 247.607 81.0547L161.572 130.713C161.279 130.859 161.035 131.055 160.791 131.201C160.693 131.25 160.645 131.348 160.547 131.396C160.352 131.543 160.205 131.641 160.01 131.787C159.912 131.885 159.814 131.934 159.717 132.031C159.57 132.178 159.375 132.324 159.229 132.471C159.131 132.568 159.033 132.666 158.936 132.715C158.887 132.764 158.838 132.813 158.74 132.861C158.691 132.91 158.643 133.008 158.545 133.057L157.959 133.643C157.91 133.691 157.861 133.789 157.764 133.838C157.715 133.887 157.666 133.936 157.617 134.033C157.52 134.18 157.373 134.277 157.275 134.424C157.227 134.521 157.129 134.57 157.08 134.668C157.031 134.766 156.982 134.814 156.934 134.912C156.836 135.01 156.787 135.107 156.689 135.254C156.641 135.303 156.592 135.4 156.543 135.449C156.445 135.596 156.348 135.693 156.299 135.84C156.25 135.938 156.201 135.986 156.152 136.084C156.152 136.133 156.104 136.133 156.104 136.182L155.664 136.914C155.664 136.914 155.664 136.963 155.615 136.963C155.566 137.012 155.566 137.061 155.518 137.109C155.42 137.305 155.322 137.451 155.225 137.646C155.176 137.744 155.127 137.793 155.127 137.891C155.078 137.988 155.029 138.086 154.98 138.135C154.932 138.232 154.883 138.281 154.883 138.379C154.785 138.574 154.688 138.77 154.639 138.965C154.639 139.014 154.59 139.062 154.59 139.111V139.16C154.492 139.404 154.395 139.648 154.297 139.941C154.297 139.99 154.248 140.039 154.248 140.088C154.199 140.186 154.199 140.283 154.15 140.381C154.102 140.527 154.053 140.625 154.004 140.771C153.955 140.869 153.955 140.967 153.906 141.064C153.857 141.162 153.857 141.309 153.809 141.406C153.809 141.504 153.76 141.553 153.76 141.65C153.711 141.797 153.711 141.895 153.662 142.041C153.613 142.187 153.564 142.334 153.564 142.48C153.564 142.529 153.516 142.578 153.516 142.627C153.516 142.725 153.467 142.822 153.467 142.92C153.418 143.164 153.369 143.359 153.369 143.604C153.369 143.652 153.32 143.75 153.32 143.799C153.32 143.945 153.271 144.092 153.271 144.189C153.271 144.287 153.271 144.385 153.223 144.482C153.223 144.775 153.174 145.117 153.174 145.41L153.662 314.258C153.662 316.602 154.395 318.311 155.615 319.287C155.811 319.434 155.957 319.531 156.152 319.678L163.379 323.877C161.865 322.998 160.889 321.143 160.889 318.457L160.4 149.609C160.4 149.316 160.4 148.975 160.449 148.682C160.449 148.584 160.449 148.486 160.498 148.389C160.498 148.193 160.547 147.998 160.596 147.803C160.645 147.607 160.645 147.363 160.693 147.119C160.742 146.973 160.742 146.826 160.791 146.631C160.84 146.484 160.84 146.338 160.889 146.191L161.035 145.605C161.084 145.508 161.084 145.361 161.133 145.264C161.182 145.02 161.279 144.824 161.377 144.58C161.426 144.482 161.426 144.385 161.475 144.287C161.572 143.994 161.719 143.652 161.865 143.359C161.865 143.311 161.914 143.262 161.914 143.213C162.012 142.92 162.158 142.676 162.305 142.432C162.354 142.334 162.402 142.285 162.451 142.188C162.598 141.943 162.744 141.65 162.842 141.406C162.891 141.357 162.891 141.309 162.939 141.26C163.086 140.967 163.281 140.674 163.477 140.381C163.525 140.283 163.574 140.234 163.623 140.137L164.063 139.551C164.16 139.453 164.209 139.355 164.307 139.209C164.453 139.063 164.551 138.867 164.697 138.721C164.795 138.574 164.893 138.428 165.039 138.33C165.137 138.184 165.234 138.086 165.381 137.939C165.576 137.744 165.771 137.549 165.918 137.354L166.26 137.012C166.357 136.914 166.455 136.816 166.553 136.768C166.699 136.621 166.895 136.475 167.041 136.328C167.139 136.23 167.236 136.182 167.334 136.084C167.529 135.938 167.676 135.791 167.871 135.693C167.969 135.645 168.018 135.547 168.115 135.498C168.359 135.303 168.652 135.156 168.896 135.01L255.029 85.3027C255.371 85.1074 255.713 84.9121 256.104 84.7656C256.201 84.7168 256.348 84.668 256.445 84.6191C256.494 84.4727 256.738 84.375 256.885 84.3262Z" fill="#2A2ABC"/>
<path d="M217.236 263.721C222.559 260.644 226.855 263.135 226.904 269.238C226.953 275.342 222.607 282.764 217.334 285.84C212.012 288.916 207.715 286.426 207.715 280.322C207.715 274.219 211.914 266.797 217.236 263.721Z" fill="white"/>
<path d="M205.176 195.557C204.492 195.166 204.492 193.848 205.176 192.627L214.014 177.344C214.355 176.758 214.795 176.27 215.283 175.977C215.43 175.879 215.576 175.83 215.723 175.781C216.357 175.635 216.846 175.879 216.992 176.514C217.139 177.148 216.992 177.979 216.504 178.76L207.666 194.043C207.324 194.629 206.836 195.117 206.396 195.361C206.006 195.654 205.566 195.752 205.176 195.557Z" fill="#161691"/>
<path d="M212.012 191.064C212.646 190.918 213.135 191.162 213.281 191.797C213.428 192.432 213.281 193.262 212.793 194.043L208.984 200.586C207.568 202.979 205.762 204.883 203.906 205.908C202.051 206.982 200.244 207.227 198.828 206.396C196.045 204.785 195.996 199.609 198.779 194.775L202.588 188.232C202.93 187.646 203.369 187.158 203.857 186.865C204.004 186.768 204.15 186.719 204.297 186.67C204.932 186.523 205.42 186.768 205.566 187.402C205.713 188.037 205.566 188.867 205.078 189.648L201.27 196.191C200.342 197.754 200 199.463 200.342 200.732C200.684 201.953 201.66 202.539 202.881 202.197C203.174 202.1 203.516 202.002 203.809 201.807C204.736 201.27 205.664 200.293 206.348 199.121L210.156 192.578C210.498 191.992 210.938 191.504 211.426 191.211C211.67 191.162 211.865 191.113 212.012 191.064ZM222.803 165.039C225.586 166.602 225.635 171.729 222.9 176.563L219.092 183.105C218.75 183.691 218.311 184.131 217.871 184.375C217.432 184.619 216.943 184.717 216.602 184.521C215.918 184.131 215.918 182.861 216.553 181.641L220.361 175.098C221.289 173.535 221.631 171.826 221.289 170.557C220.947 169.336 219.971 168.75 218.75 169.092C218.457 169.189 218.115 169.287 217.822 169.482C216.895 170.02 215.967 170.996 215.283 172.168L211.475 178.711C211.133 179.297 210.693 179.785 210.205 180.029C210.059 180.127 209.912 180.176 209.766 180.225C209.131 180.371 208.643 180.127 208.496 179.492C208.35 178.857 208.496 178.027 208.984 177.246L212.793 170.703C214.16 168.359 215.967 166.504 217.773 165.479C219.58 164.502 221.387 164.258 222.803 165.039Z" fill="#161691"/>
<path d="M218.604 196.924C218.75 196.924 218.848 196.973 218.945 197.021L213.672 193.945C213.623 193.945 213.623 193.896 213.574 193.896C213.525 193.896 213.525 193.896 213.477 193.848H213.037C212.988 193.848 212.939 193.848 212.891 193.896C212.842 193.896 212.744 193.945 212.695 193.945C212.598 193.994 212.549 194.043 212.451 194.092C212.354 194.141 212.207 194.238 212.109 194.336L212.012 194.434C211.963 194.482 211.914 194.531 211.816 194.58L211.768 194.629L211.719 194.678L211.621 194.775C211.572 194.824 211.523 194.873 211.475 194.971L211.426 195.02V195.068C211.426 195.117 211.377 195.117 211.377 195.166C211.328 195.215 211.328 195.264 211.279 195.313C211.23 195.361 211.23 195.41 211.182 195.459L207.373 202.002C207.227 202.295 207.031 202.539 206.836 202.832L206.787 202.881C206.641 203.125 206.445 203.32 206.25 203.516C206.201 203.564 206.152 203.613 206.152 203.662L205.713 204.102L205.518 204.297C205.322 204.492 205.078 204.639 204.834 204.736C204.687 204.834 204.492 204.932 204.346 204.98L203.906 205.127C203.76 205.176 203.613 205.176 203.516 205.225H202.979C202.881 205.225 202.734 205.176 202.637 205.176H202.588C202.49 205.127 202.344 205.078 202.246 205.029L207.52 208.105C207.568 208.154 207.617 208.154 207.715 208.203C207.764 208.203 207.813 208.252 207.861 208.252H207.91C207.959 208.252 208.057 208.301 208.105 208.301H208.887C208.984 208.301 209.082 208.252 209.18 208.252C209.326 208.203 209.473 208.154 209.57 208.105C209.717 208.057 209.912 207.959 210.059 207.861C210.303 207.715 210.498 207.568 210.742 207.422C210.791 207.373 210.889 207.324 210.937 207.227C211.035 207.129 211.182 207.031 211.279 206.934C211.328 206.885 211.328 206.836 211.377 206.836C211.426 206.787 211.475 206.738 211.475 206.689C211.523 206.641 211.572 206.592 211.621 206.494C211.719 206.396 211.816 206.25 211.914 206.152C211.963 206.104 211.963 206.055 212.012 206.055L212.061 206.006C212.109 205.957 212.158 205.908 212.158 205.859C212.207 205.762 212.305 205.664 212.354 205.566C212.402 205.469 212.5 205.371 212.549 205.273C212.549 205.273 212.549 205.225 212.598 205.225L216.406 198.682C216.504 198.535 216.602 198.389 216.65 198.291V198.242C216.748 198.145 216.846 198.047 216.895 197.9L216.943 197.852C216.992 197.754 217.09 197.705 217.187 197.656L217.285 197.559C217.383 197.461 217.529 197.412 217.627 197.314C217.773 197.217 217.92 197.168 218.066 197.119C218.311 196.924 218.457 196.924 218.604 196.924ZM227.539 178.174C227.588 177.881 227.588 177.588 227.588 177.344V177.197C227.588 176.953 227.539 176.709 227.49 176.465C227.344 175.83 227.002 175.391 226.562 175.146L221.289 172.07C221.729 172.314 222.021 172.754 222.217 173.389C222.266 173.633 222.314 173.877 222.314 174.121V174.268C222.314 174.512 222.314 174.756 222.266 175.049C222.266 175.146 222.217 175.293 222.217 175.391C222.217 175.439 222.217 175.488 222.168 175.537C222.119 175.732 222.07 175.879 222.021 176.074C222.021 176.123 222.021 176.123 221.973 176.172C221.924 176.367 221.875 176.514 221.777 176.709V176.758C221.68 176.953 221.631 177.148 221.533 177.344L221.24 177.93L217.432 184.473L217.383 184.521C217.334 184.57 217.334 184.619 217.285 184.668C217.236 184.717 217.236 184.766 217.236 184.814V184.912C217.236 184.961 217.236 184.961 217.187 185.01C217.187 185.059 217.139 185.107 217.139 185.156C217.139 185.205 217.09 185.303 217.09 185.352C217.09 185.4 217.041 185.498 217.041 185.547C217.041 185.596 217.041 185.693 216.992 185.742V186.377C216.992 186.475 217.041 186.572 217.041 186.621C217.041 186.67 217.09 186.719 217.09 186.768C217.139 186.865 217.139 186.914 217.187 186.963C217.187 187.012 217.236 187.012 217.236 187.061C217.285 187.158 217.383 187.207 217.48 187.305L222.754 190.381C222.656 190.332 222.559 190.234 222.51 190.137C222.51 190.088 222.461 190.088 222.461 190.039C222.412 189.99 222.363 189.893 222.363 189.844C222.363 189.795 222.314 189.746 222.314 189.697C222.314 189.6 222.266 189.551 222.266 189.453V188.818C222.266 188.672 222.314 188.574 222.363 188.428L222.51 187.988V187.939C222.559 187.793 222.656 187.646 222.705 187.5L226.514 180.957L226.66 180.664L226.807 180.371L226.953 180.078C227.002 179.98 227.051 179.883 227.051 179.785V179.736C227.1 179.639 227.148 179.492 227.148 179.395C227.148 179.346 227.197 179.297 227.197 179.199C227.197 179.15 227.197 179.15 227.246 179.102C227.246 179.053 227.246 179.053 227.295 179.004C227.344 178.857 227.344 178.711 227.393 178.613V178.564C227.393 178.516 227.393 178.467 227.441 178.418C227.49 178.369 227.539 178.271 227.539 178.174Z" fill="#ACC5EA"/>
<path d="M217.48 178.711C217.432 178.711 217.432 178.662 217.383 178.662C217.334 178.662 217.334 178.662 217.285 178.613H216.846C216.797 178.613 216.748 178.613 216.699 178.662C216.65 178.662 216.553 178.711 216.504 178.711C216.406 178.76 216.357 178.809 216.26 178.857C216.162 178.906 216.016 179.004 215.918 179.102L215.82 179.199L215.674 179.346L215.625 179.395L215.576 179.443L215.479 179.541C215.43 179.59 215.381 179.639 215.332 179.736L215.283 179.785V179.834L215.234 179.883C215.186 179.932 215.186 179.98 215.137 180.029C215.088 180.078 215.088 180.127 215.039 180.176V180.225L206.201 195.508C206.152 195.557 206.152 195.605 206.104 195.654C206.055 195.703 206.055 195.752 206.006 195.801C205.957 195.85 205.957 195.898 205.957 195.947C205.957 195.996 205.908 196.045 205.908 196.094C205.908 196.143 205.859 196.191 205.859 196.24C205.859 196.289 205.811 196.338 205.811 196.387V196.484C205.811 196.533 205.762 196.631 205.762 196.68C205.762 196.729 205.762 196.777 205.713 196.826V197.51C205.713 197.607 205.762 197.705 205.762 197.754C205.762 197.803 205.811 197.852 205.811 197.9C205.859 197.998 205.859 198.047 205.908 198.096C205.908 198.145 205.957 198.145 205.957 198.193C206.006 198.291 206.104 198.34 206.201 198.438L211.475 201.514C211.377 201.465 211.279 201.367 211.23 201.27C211.23 201.221 211.182 201.221 211.182 201.172C211.133 201.123 211.084 201.025 211.084 200.977C211.084 200.928 211.035 200.879 211.035 200.83C211.035 200.732 210.986 200.684 210.986 200.586V199.902C210.986 199.756 211.035 199.658 211.084 199.512V199.463L211.23 199.023C211.279 198.877 211.377 198.73 211.475 198.584L220.313 183.301C220.41 183.154 220.459 183.008 220.557 182.91V182.861C220.654 182.764 220.752 182.617 220.801 182.52L220.85 182.471C220.898 182.373 220.996 182.324 221.094 182.275L221.191 182.178C221.289 182.08 221.387 182.031 221.533 181.934C221.68 181.836 221.826 181.787 221.973 181.738C222.119 181.689 222.266 181.689 222.412 181.689C222.559 181.689 222.656 181.738 222.803 181.787L217.48 178.711Z" fill="#ACC5EA"/>
<path d="M211.377 201.416C210.693 201.025 210.693 199.707 211.377 198.486L220.215 183.203C220.557 182.617 220.996 182.129 221.484 181.836C221.631 181.738 221.777 181.689 221.924 181.641C222.559 181.494 223.047 181.738 223.193 182.373C223.34 183.008 223.193 183.838 222.705 184.619L213.867 199.902C213.525 200.488 213.037 200.977 212.598 201.221C212.158 201.563 211.719 201.611 211.377 201.416Z" fill="white"/>
<path d="M218.164 196.973C218.799 196.826 219.287 197.07 219.434 197.705C219.58 198.34 219.434 199.17 218.945 199.951L215.137 206.494C213.721 208.887 211.914 210.791 210.059 211.816C208.203 212.891 206.396 213.135 204.98 212.305C202.197 210.693 202.148 205.518 204.932 200.684L208.74 194.141C209.082 193.555 209.521 193.066 210.01 192.773C210.156 192.676 210.303 192.627 210.449 192.578C211.084 192.432 211.572 192.676 211.719 193.311C211.865 193.945 211.719 194.775 211.23 195.557L207.422 202.1C206.494 203.662 206.152 205.371 206.494 206.641C206.836 207.861 207.813 208.447 209.033 208.105C209.326 208.008 209.668 207.91 209.961 207.715C210.889 207.178 211.816 206.201 212.5 205.029L216.309 198.486C216.65 197.9 217.09 197.412 217.578 197.119C217.871 197.07 218.018 197.021 218.164 196.973Z" fill="white"/>
<path d="M211.377 192.676L206.104 189.6C206.055 189.6 206.055 189.551 206.006 189.551C205.957 189.551 205.957 189.551 205.908 189.502H205.469C205.42 189.502 205.371 189.502 205.322 189.551C205.273 189.551 205.176 189.6 205.127 189.6C205.029 189.648 204.98 189.697 204.883 189.746C204.785 189.795 204.639 189.893 204.541 189.99L204.443 190.088L204.297 190.234L204.248 190.283L204.199 190.332L204.102 190.43C204.053 190.479 204.004 190.527 203.955 190.625L203.906 190.674V190.723L203.857 190.771C203.809 190.82 203.809 190.869 203.76 190.918C203.711 190.967 203.711 191.016 203.662 191.064V191.113L199.854 197.656C199.756 197.852 199.658 197.998 199.561 198.193C199.512 198.291 199.463 198.389 199.414 198.437C199.365 198.486 199.365 198.584 199.316 198.633C199.316 198.682 199.268 198.73 199.219 198.779C199.121 198.975 199.023 199.17 198.926 199.414V199.463C198.926 199.512 198.877 199.561 198.877 199.561C198.828 199.707 198.73 199.902 198.682 200.049C198.633 200.098 198.633 200.195 198.584 200.244C198.535 200.342 198.535 200.391 198.486 200.488C198.438 200.537 198.437 200.635 198.389 200.684C198.34 200.83 198.291 200.928 198.291 201.074C198.242 201.172 198.242 201.27 198.193 201.318C198.193 201.367 198.193 201.367 198.145 201.416C198.096 201.562 198.096 201.709 198.047 201.855C197.998 201.953 197.998 202.1 197.949 202.197V202.246C197.949 202.344 197.949 202.393 197.9 202.49C197.852 202.734 197.803 202.93 197.803 203.174V203.467C197.803 203.662 197.754 203.857 197.754 204.102V205.322C197.754 205.566 197.803 205.762 197.852 206.006V206.152C197.9 206.396 197.949 206.689 198.047 206.885C198.047 206.934 198.096 207.031 198.096 207.08C198.145 207.227 198.242 207.422 198.291 207.568C198.34 207.666 198.389 207.715 198.389 207.813C198.486 207.959 198.535 208.057 198.633 208.203C198.682 208.252 198.73 208.35 198.779 208.398C198.877 208.545 198.975 208.643 199.072 208.74L199.219 208.887C199.365 209.033 199.561 209.18 199.756 209.277L205.029 212.354C204.834 212.256 204.639 212.109 204.492 211.963L204.346 211.816C204.248 211.719 204.15 211.621 204.053 211.475C204.004 211.426 203.955 211.328 203.906 211.279C203.809 211.133 203.76 211.035 203.662 210.889C203.613 210.791 203.564 210.742 203.564 210.645C203.467 210.498 203.418 210.303 203.369 210.156C203.369 210.107 203.32 210.01 203.32 209.961C203.223 209.717 203.174 209.473 203.125 209.229V209.082C203.076 208.887 203.076 208.643 203.027 208.398V207.178C203.027 206.982 203.076 206.787 203.076 206.543C203.076 206.445 203.076 206.348 203.125 206.201C203.174 205.957 203.174 205.762 203.223 205.518C203.223 205.42 203.271 205.322 203.271 205.225C203.271 205.127 203.32 204.98 203.369 204.883C203.418 204.688 203.467 204.541 203.516 204.346C203.516 204.248 203.564 204.15 203.613 204.102C203.662 203.906 203.76 203.711 203.809 203.516C203.857 203.418 203.857 203.369 203.906 203.271C204.004 203.027 204.102 202.832 204.199 202.588C204.199 202.539 204.248 202.49 204.248 202.49C204.346 202.246 204.492 201.953 204.639 201.709C204.688 201.66 204.687 201.563 204.736 201.514C204.883 201.27 205.029 200.977 205.176 200.732L208.984 194.189C209.082 194.043 209.131 193.896 209.229 193.799V193.75C209.326 193.652 209.424 193.506 209.473 193.408L209.521 193.359C209.57 193.262 209.668 193.213 209.766 193.164L209.863 193.066C209.961 192.969 210.059 192.92 210.205 192.822C210.352 192.725 210.498 192.676 210.645 192.627C210.791 192.578 210.937 192.578 211.084 192.578C211.133 192.578 211.23 192.627 211.377 192.676Z" fill="#ACC5EA"/>
<path d="M228.955 170.947C231.738 172.51 231.787 177.637 229.053 182.471L225.244 189.014C224.902 189.6 224.463 190.039 224.023 190.283C223.584 190.527 223.096 190.625 222.754 190.43C222.07 190.039 222.07 188.77 222.705 187.549L226.514 181.006C227.441 179.443 227.783 177.734 227.441 176.465C227.1 175.244 226.123 174.658 224.902 175C224.609 175.098 224.268 175.195 223.975 175.391C223.047 175.928 222.119 176.904 221.436 178.076L217.627 184.619C217.285 185.205 216.846 185.693 216.357 185.937C216.211 186.035 216.064 186.084 215.918 186.133C215.283 186.279 214.795 186.035 214.648 185.4C214.502 184.766 214.648 183.936 215.137 183.154L218.945 176.611C220.313 174.268 222.119 172.412 223.926 171.387C225.732 170.41 227.588 170.166 228.955 170.947Z" fill="white"/>
<path d="M219.922 175.195C219.971 175.098 220.02 175.049 220.117 174.951C220.215 174.805 220.361 174.658 220.459 174.512C220.557 174.414 220.605 174.316 220.703 174.219C220.752 174.121 220.85 174.072 220.898 174.023C221.094 173.828 221.24 173.633 221.436 173.486C221.533 173.389 221.68 173.291 221.777 173.145C221.875 173.047 221.973 172.998 222.021 172.9C222.168 172.803 222.266 172.656 222.412 172.559C222.51 172.51 222.559 172.412 222.656 172.363C222.803 172.266 222.949 172.168 223.096 172.021C223.145 171.973 223.242 171.924 223.291 171.875C223.486 171.729 223.73 171.582 223.926 171.484C224.219 171.289 224.512 171.191 224.805 171.045C224.902 170.996 224.951 170.996 225.049 170.947C225.244 170.898 225.391 170.801 225.586 170.752C225.684 170.703 225.781 170.703 225.83 170.654C225.928 170.605 226.025 170.605 226.123 170.605C226.221 170.605 226.367 170.557 226.465 170.557H227.197C227.393 170.557 227.539 170.557 227.734 170.605H227.783C227.93 170.654 228.076 170.703 228.271 170.752C228.32 170.752 228.369 170.801 228.418 170.801C228.564 170.85 228.76 170.947 228.906 171.045L223.633 167.969C223.535 167.92 223.389 167.822 223.291 167.773C223.242 167.773 223.242 167.725 223.193 167.725C223.145 167.725 223.096 167.676 223.047 167.676C222.998 167.676 222.949 167.627 222.9 167.627C222.803 167.578 222.705 167.578 222.559 167.529H222.51C222.363 167.529 222.217 167.48 222.07 167.48H221.143C221.045 167.48 220.996 167.529 220.898 167.529C220.801 167.529 220.703 167.578 220.605 167.578H220.508C220.459 167.578 220.41 167.627 220.361 167.627C220.166 167.676 220.02 167.725 219.824 167.822C219.775 167.822 219.727 167.871 219.678 167.871C219.629 167.871 219.58 167.92 219.58 167.92L218.701 168.359C218.506 168.506 218.262 168.604 218.066 168.75C218.018 168.799 217.92 168.848 217.871 168.896C217.725 168.994 217.578 169.092 217.432 169.238C217.334 169.287 217.285 169.385 217.188 169.434C217.041 169.531 216.943 169.629 216.797 169.775C216.699 169.873 216.602 169.922 216.553 170.02C216.455 170.068 216.406 170.166 216.309 170.215L216.211 170.312C216.016 170.508 215.869 170.703 215.674 170.85L215.527 170.996L215.479 171.045C215.381 171.143 215.332 171.24 215.234 171.338C215.137 171.436 215.039 171.582 214.941 171.68C214.941 171.729 214.893 171.729 214.893 171.777C214.844 171.875 214.795 171.924 214.697 172.021C214.6 172.119 214.551 172.217 214.453 172.314C214.404 172.363 214.355 172.461 214.307 172.51C214.258 172.607 214.209 172.656 214.16 172.754C214.111 172.803 214.062 172.9 214.014 172.949C213.916 173.145 213.77 173.34 213.672 173.486L209.863 180.029C209.814 180.078 209.814 180.127 209.766 180.176C209.717 180.225 209.717 180.273 209.668 180.322C209.668 180.371 209.619 180.42 209.619 180.469C209.619 180.518 209.57 180.566 209.57 180.615C209.57 180.664 209.521 180.713 209.521 180.762C209.521 180.811 209.473 180.859 209.473 180.957C209.473 181.006 209.424 181.104 209.424 181.152C209.424 181.201 209.375 181.299 209.375 181.348V181.738C209.375 181.885 209.375 182.08 209.424 182.227C209.521 182.52 209.668 182.764 209.863 182.861L215.137 185.937C214.941 185.791 214.746 185.596 214.697 185.303C214.648 185.156 214.648 185.01 214.648 184.814V184.668C214.648 184.521 214.648 184.375 214.697 184.229C214.746 184.033 214.795 183.838 214.893 183.643L215.186 183.057L218.994 176.514C219.141 176.27 219.287 176.025 219.482 175.781C219.531 175.684 219.58 175.635 219.629 175.537C219.629 175.537 219.775 175.342 219.922 175.195Z" fill="#ACC5EA"/>
<path d="M254.932 85.2051C259.57 82.5195 263.379 84.7168 263.428 90.0391L263.916 258.887C263.916 264.209 260.156 270.801 255.518 273.486L169.336 323.193C164.697 325.879 160.889 323.682 160.84 318.359L160.352 149.512C160.352 144.189 164.111 137.598 168.799 134.912L254.932 85.2051Z" fill="#4040FF"/>
<path d="M247.217 107.764C248.828 106.836 250.146 107.568 250.146 109.424L250.488 229.834C250.488 231.689 249.17 233.984 247.559 234.912L177.051 275.635C175.439 276.562 174.121 275.83 174.121 273.975L173.779 153.564C173.779 151.709 175.098 149.414 176.709 148.486L247.217 107.764Z" fill="#2A2ABC"/>
<path d="M256.885 84.3262C257.031 84.2773 257.129 84.2285 257.275 84.2285C257.373 84.1797 257.52 84.1797 257.617 84.1309C257.764 84.082 257.91 84.082 258.057 84.082C258.154 84.082 258.203 84.082 258.301 84.0332H258.936C259.131 84.0332 259.375 84.082 259.57 84.1309C259.619 84.1309 259.668 84.1309 259.717 84.1797C259.863 84.2285 260.01 84.2773 260.205 84.3262C260.254 84.3262 260.303 84.375 260.352 84.375C260.547 84.4727 260.742 84.5215 260.889 84.6191L253.662 80.4199C253.662 80.4199 253.613 80.4199 253.613 80.3711C253.467 80.2734 253.32 80.2246 253.174 80.1758C253.125 80.1758 253.125 80.1758 253.076 80.127C253.027 80.127 252.979 80.0781 252.93 80.0781C252.832 80.0293 252.783 80.0293 252.686 79.9805C252.588 79.9805 252.539 79.9316 252.441 79.9316C252.393 79.9316 252.344 79.8828 252.295 79.8828H252.197C252.051 79.834 251.855 79.834 251.66 79.834H250.928C250.83 79.834 250.781 79.834 250.684 79.8828C250.586 79.8828 250.537 79.8828 250.439 79.9316C250.391 79.9316 250.293 79.9805 250.244 79.9805C250.146 79.9805 250 80.0293 249.902 80.0781C249.854 80.0781 249.756 80.0781 249.707 80.127C249.658 80.127 249.561 80.1758 249.512 80.1758C249.316 80.2246 249.121 80.3223 248.926 80.3711C248.877 80.4199 248.779 80.4199 248.73 80.4688C248.682 80.4688 248.633 80.5176 248.633 80.5176C248.291 80.6641 247.949 80.8105 247.607 81.0547L161.572 130.713C161.279 130.859 161.035 131.055 160.791 131.201C160.693 131.25 160.645 131.348 160.547 131.396C160.352 131.543 160.205 131.641 160.01 131.787C159.912 131.885 159.814 131.934 159.717 132.031C159.57 132.178 159.375 132.324 159.229 132.471C159.131 132.568 159.033 132.666 158.936 132.715C158.887 132.764 158.838 132.813 158.74 132.861C158.691 132.91 158.643 133.008 158.545 133.057L157.959 133.643C157.91 133.691 157.861 133.789 157.764 133.838C157.715 133.887 157.666 133.936 157.617 134.033C157.52 134.18 157.373 134.277 157.275 134.424C157.227 134.521 157.129 134.57 157.08 134.668C157.031 134.766 156.982 134.814 156.934 134.912C156.836 135.01 156.787 135.107 156.689 135.254C156.641 135.303 156.592 135.4 156.543 135.449C156.445 135.596 156.348 135.693 156.299 135.84C156.25 135.938 156.201 135.986 156.152 136.084C156.152 136.133 156.104 136.133 156.104 136.182L155.664 136.914C155.664 136.914 155.664 136.963 155.615 136.963C155.566 137.012 155.566 137.061 155.518 137.109C155.42 137.305 155.322 137.451 155.225 137.646C155.176 137.744 155.127 137.793 155.127 137.891C155.078 137.988 155.029 138.086 154.98 138.135C154.932 138.232 154.883 138.281 154.883 138.379C154.785 138.574 154.688 138.77 154.639 138.965C154.639 139.014 154.59 139.062 154.59 139.111V139.16C154.492 139.404 154.395 139.648 154.297 139.941C154.297 139.99 154.248 140.039 154.248 140.088C154.199 140.186 154.199 140.283 154.15 140.381C154.102 140.527 154.053 140.625 154.004 140.771C153.955 140.869 153.955 140.967 153.906 141.064C153.857 141.162 153.857 141.309 153.809 141.406C153.809 141.504 153.76 141.553 153.76 141.65C153.711 141.797 153.711 141.895 153.662 142.041C153.613 142.187 153.564 142.334 153.564 142.48C153.564 142.529 153.516 142.578 153.516 142.627C153.516 142.725 153.467 142.822 153.467 142.92C153.418 143.164 153.369 143.359 153.369 143.604C153.369 143.652 153.32 143.75 153.32 143.799C153.32 143.945 153.271 144.092 153.271 144.189C153.271 144.287 153.271 144.385 153.223 144.482C153.223 144.775 153.174 145.117 153.174 145.41L153.662 314.258C153.662 316.602 154.395 318.311 155.615 319.287C155.811 319.434 155.957 319.531 156.152 319.678L163.379 323.877C161.865 322.998 160.889 321.143 160.889 318.457L160.4 149.609C160.4 149.316 160.4 148.975 160.449 148.682C160.449 148.584 160.449 148.486 160.498 148.389C160.498 148.193 160.547 147.998 160.596 147.803C160.645 147.607 160.645 147.363 160.693 147.119C160.742 146.973 160.742 146.826 160.791 146.631C160.84 146.484 160.84 146.338 160.889 146.191L161.035 145.605C161.084 145.508 161.084 145.361 161.133 145.264C161.182 145.02 161.279 144.824 161.377 144.58C161.426 144.482 161.426 144.385 161.475 144.287C161.572 143.994 161.719 143.652 161.865 143.359C161.865 143.311 161.914 143.262 161.914 143.213C162.012 142.92 162.158 142.676 162.305 142.432C162.354 142.334 162.402 142.285 162.451 142.188C162.598 141.943 162.744 141.65 162.842 141.406C162.891 141.357 162.891 141.309 162.939 141.26C163.086 140.967 163.281 140.674 163.477 140.381C163.525 140.283 163.574 140.234 163.623 140.137L164.063 139.551C164.16 139.453 164.209 139.355 164.307 139.209C164.453 139.063 164.551 138.867 164.697 138.721C164.795 138.574 164.893 138.428 165.039 138.33C165.137 138.184 165.234 138.086 165.381 137.939C165.576 137.744 165.771 137.549 165.918 137.354L166.26 137.012C166.357 136.914 166.455 136.816 166.553 136.768C166.699 136.621 166.895 136.475 167.041 136.328C167.139 136.23 167.236 136.182 167.334 136.084C167.529 135.938 167.676 135.791 167.871 135.693C167.969 135.645 168.018 135.547 168.115 135.498C168.359 135.303 168.652 135.156 168.896 135.01L255.029 85.3027C255.371 85.1074 255.713 84.9121 256.104 84.7656C256.201 84.7168 256.348 84.668 256.445 84.6191C256.494 84.4727 256.738 84.375 256.885 84.3262Z" fill="#2A2ABC"/>
<path d="M217.236 263.721C222.559 260.644 226.855 263.135 226.904 269.238C226.953 275.342 222.607 282.764 217.334 285.84C212.012 288.916 207.715 286.426 207.715 280.322C207.715 274.219 211.914 266.797 217.236 263.721Z" fill="white"/>
<path d="M205.176 195.557C204.492 195.166 204.492 193.848 205.176 192.627L214.014 177.344C214.355 176.758 214.795 176.27 215.283 175.977C215.43 175.879 215.576 175.83 215.723 175.781C216.357 175.635 216.846 175.879 216.992 176.514C217.139 177.148 216.992 177.979 216.504 178.76L207.666 194.043C207.324 194.629 206.836 195.117 206.396 195.361C206.006 195.654 205.566 195.752 205.176 195.557Z" fill="#161691"/>
<path d="M212.012 191.064C212.646 190.918 213.135 191.162 213.281 191.797C213.428 192.432 213.281 193.262 212.793 194.043L208.984 200.586C207.568 202.979 205.762 204.883 203.906 205.908C202.051 206.982 200.244 207.227 198.828 206.396C196.045 204.785 195.996 199.609 198.779 194.775L202.588 188.232C202.93 187.646 203.369 187.158 203.857 186.865C204.004 186.768 204.15 186.719 204.297 186.67C204.932 186.523 205.42 186.768 205.566 187.402C205.713 188.037 205.566 188.867 205.078 189.648L201.27 196.191C200.342 197.754 200 199.463 200.342 200.732C200.684 201.953 201.66 202.539 202.881 202.197C203.174 202.1 203.516 202.002 203.809 201.807C204.736 201.27 205.664 200.293 206.348 199.121L210.156 192.578C210.498 191.992 210.938 191.504 211.426 191.211C211.67 191.162 211.865 191.113 212.012 191.064ZM222.803 165.039C225.586 166.602 225.635 171.729 222.9 176.563L219.092 183.105C218.75 183.691 218.311 184.131 217.871 184.375C217.432 184.619 216.943 184.717 216.602 184.521C215.918 184.131 215.918 182.861 216.553 181.641L220.361 175.098C221.289 173.535 221.631 171.826 221.289 170.557C220.947 169.336 219.971 168.75 218.75 169.092C218.457 169.189 218.115 169.287 217.822 169.482C216.895 170.02 215.967 170.996 215.283 172.168L211.475 178.711C211.133 179.297 210.693 179.785 210.205 180.029C210.059 180.127 209.912 180.176 209.766 180.225C209.131 180.371 208.643 180.127 208.496 179.492C208.35 178.857 208.496 178.027 208.984 177.246L212.793 170.703C214.16 168.359 215.967 166.504 217.773 165.479C219.58 164.502 221.387 164.258 222.803 165.039Z" fill="#161691"/>
<path d="M218.604 196.924C218.75 196.924 218.848 196.973 218.945 197.021L213.672 193.945C213.623 193.945 213.623 193.896 213.574 193.896C213.525 193.896 213.525 193.896 213.477 193.848H213.037C212.988 193.848 212.939 193.848 212.891 193.896C212.842 193.896 212.744 193.945 212.695 193.945C212.598 193.994 212.549 194.043 212.451 194.092C212.354 194.141 212.207 194.238 212.109 194.336L212.012 194.434C211.963 194.482 211.914 194.531 211.816 194.58L211.768 194.629L211.719 194.678L211.621 194.775C211.572 194.824 211.523 194.873 211.475 194.971L211.426 195.02V195.068C211.426 195.117 211.377 195.117 211.377 195.166C211.328 195.215 211.328 195.264 211.279 195.313C211.23 195.361 211.23 195.41 211.182 195.459L207.373 202.002C207.227 202.295 207.031 202.539 206.836 202.832L206.787 202.881C206.641 203.125 206.445 203.32 206.25 203.516C206.201 203.564 206.152 203.613 206.152 203.662L205.713 204.102L205.518 204.297C205.322 204.492 205.078 204.639 204.834 204.736C204.687 204.834 204.492 204.932 204.346 204.98L203.906 205.127C203.76 205.176 203.613 205.176 203.516 205.225H202.979C202.881 205.225 202.734 205.176 202.637 205.176H202.588C202.49 205.127 202.344 205.078 202.246 205.029L207.52 208.105C207.568 208.154 207.617 208.154 207.715 208.203C207.764 208.203 207.813 208.252 207.861 208.252H207.91C207.959 208.252 208.057 208.301 208.105 208.301H208.887C208.984 208.301 209.082 208.252 209.18 208.252C209.326 208.203 209.473 208.154 209.57 208.105C209.717 208.057 209.912 207.959 210.059 207.861C210.303 207.715 210.498 207.568 210.742 207.422C210.791 207.373 210.889 207.324 210.937 207.227C211.035 207.129 211.182 207.031 211.279 206.934C211.328 206.885 211.328 206.836 211.377 206.836C211.426 206.787 211.475 206.738 211.475 206.689C211.523 206.641 211.572 206.592 211.621 206.494C211.719 206.396 211.816 206.25 211.914 206.152C211.963 206.104 211.963 206.055 212.012 206.055L212.061 206.006C212.109 205.957 212.158 205.908 212.158 205.859C212.207 205.762 212.305 205.664 212.354 205.566C212.402 205.469 212.5 205.371 212.549 205.273C212.549 205.273 212.549 205.225 212.598 205.225L216.406 198.682C216.504 198.535 216.602 198.389 216.65 198.291V198.242C216.748 198.145 216.846 198.047 216.895 197.9L216.943 197.852C216.992 197.754 217.09 197.705 217.187 197.656L217.285 197.559C217.383 197.461 217.529 197.412 217.627 197.314C217.773 197.217 217.92 197.168 218.066 197.119C218.311 196.924 218.457 196.924 218.604 196.924ZM227.539 178.174C227.588 177.881 227.588 177.588 227.588 177.344V177.197C227.588 176.953 227.539 176.709 227.49 176.465C227.344 175.83 227.002 175.391 226.562 175.146L221.289 172.07C221.729 172.314 222.021 172.754 222.217 173.389C222.266 173.633 222.314 173.877 222.314 174.121V174.268C222.314 174.512 222.314 174.756 222.266 175.049C222.266 175.146 222.217 175.293 222.217 175.391C222.217 175.439 222.217 175.488 222.168 175.537C222.119 175.732 222.07 175.879 222.021 176.074C222.021 176.123 222.021 176.123 221.973 176.172C221.924 176.367 221.875 176.514 221.777 176.709V176.758C221.68 176.953 221.631 177.148 221.533 177.344L221.24 177.93L217.432 184.473L217.383 184.521C217.334 184.57 217.334 184.619 217.285 184.668C217.236 184.717 217.236 184.766 217.236 184.814V184.912C217.236 184.961 217.236 184.961 217.187 185.01C217.187 185.059 217.139 185.107 217.139 185.156C217.139 185.205 217.09 185.303 217.09 185.352C217.09 185.4 217.041 185.498 217.041 185.547C217.041 185.596 217.041 185.693 216.992 185.742V186.377C216.992 186.475 217.041 186.572 217.041 186.621C217.041 186.67 217.09 186.719 217.09 186.768C217.139 186.865 217.139 186.914 217.187 186.963C217.187 187.012 217.236 187.012 217.236 187.061C217.285 187.158 217.383 187.207 217.48 187.305L222.754 190.381C222.656 190.332 222.559 190.234 222.51 190.137C222.51 190.088 222.461 190.088 222.461 190.039C222.412 189.99 222.363 189.893 222.363 189.844C222.363 189.795 222.314 189.746 222.314 189.697C222.314 189.6 222.266 189.551 222.266 189.453V188.818C222.266 188.672 222.314 188.574 222.363 188.428L222.51 187.988V187.939C222.559 187.793 222.656 187.646 222.705 187.5L226.514 180.957L226.66 180.664L226.807 180.371L226.953 180.078C227.002 179.98 227.051 179.883 227.051 179.785V179.736C227.1 179.639 227.148 179.492 227.148 179.395C227.148 179.346 227.197 179.297 227.197 179.199C227.197 179.15 227.197 179.15 227.246 179.102C227.246 179.053 227.246 179.053 227.295 179.004C227.344 178.857 227.344 178.711 227.393 178.613V178.564C227.393 178.516 227.393 178.467 227.441 178.418C227.49 178.369 227.539 178.271 227.539 178.174Z" fill="#ACC5EA"/>
<path d="M217.48 178.711C217.432 178.711 217.432 178.662 217.383 178.662C217.334 178.662 217.334 178.662 217.285 178.613H216.846C216.797 178.613 216.748 178.613 216.699 178.662C216.65 178.662 216.553 178.711 216.504 178.711C216.406 178.76 216.357 178.809 216.26 178.857C216.162 178.906 216.016 179.004 215.918 179.102L215.82 179.199L215.674 179.346L215.625 179.395L215.576 179.443L215.479 179.541C215.43 179.59 215.381 179.639 215.332 179.736L215.283 179.785V179.834L215.234 179.883C215.186 179.932 215.186 179.98 215.137 180.029C215.088 180.078 215.088 180.127 215.039 180.176V180.225L206.201 195.508C206.152 195.557 206.152 195.605 206.104 195.654C206.055 195.703 206.055 195.752 206.006 195.801C205.957 195.85 205.957 195.898 205.957 195.947C205.957 195.996 205.908 196.045 205.908 196.094C205.908 196.143 205.859 196.191 205.859 196.24C205.859 196.289 205.811 196.338 205.811 196.387V196.484C205.811 196.533 205.762 196.631 205.762 196.68C205.762 196.729 205.762 196.777 205.713 196.826V197.51C205.713 197.607 205.762 197.705 205.762 197.754C205.762 197.803 205.811 197.852 205.811 197.9C205.859 197.998 205.859 198.047 205.908 198.096C205.908 198.145 205.957 198.145 205.957 198.193C206.006 198.291 206.104 198.34 206.201 198.438L211.475 201.514C211.377 201.465 211.279 201.367 211.23 201.27C211.23 201.221 211.182 201.221 211.182 201.172C211.133 201.123 211.084 201.025 211.084 200.977C211.084 200.928 211.035 200.879 211.035 200.83C211.035 200.732 210.986 200.684 210.986 200.586V199.902C210.986 199.756 211.035 199.658 211.084 199.512V199.463L211.23 199.023C211.279 198.877 211.377 198.73 211.475 198.584L220.313 183.301C220.41 183.154 220.459 183.008 220.557 182.91V182.861C220.654 182.764 220.752 182.617 220.801 182.52L220.85 182.471C220.898 182.373 220.996 182.324 221.094 182.275L221.191 182.178C221.289 182.08 221.387 182.031 221.533 181.934C221.68 181.836 221.826 181.787 221.973 181.738C222.119 181.689 222.266 181.689 222.412 181.689C222.559 181.689 222.656 181.738 222.803 181.787L217.48 178.711Z" fill="#ACC5EA"/>
<path d="M211.377 201.416C210.693 201.025 210.693 199.707 211.377 198.486L220.215 183.203C220.557 182.617 220.996 182.129 221.484 181.836C221.631 181.738 221.777 181.689 221.924 181.641C222.559 181.494 223.047 181.738 223.193 182.373C223.34 183.008 223.193 183.838 222.705 184.619L213.867 199.902C213.525 200.488 213.037 200.977 212.598 201.221C212.158 201.563 211.719 201.611 211.377 201.416Z" fill="white"/>
<path d="M218.164 196.973C218.799 196.826 219.287 197.07 219.434 197.705C219.58 198.34 219.434 199.17 218.945 199.951L215.137 206.494C213.721 208.887 211.914 210.791 210.059 211.816C208.203 212.891 206.396 213.135 204.98 212.305C202.197 210.693 202.148 205.518 204.932 200.684L208.74 194.141C209.082 193.555 209.521 193.066 210.01 192.773C210.156 192.676 210.303 192.627 210.449 192.578C211.084 192.432 211.572 192.676 211.719 193.311C211.865 193.945 211.719 194.775 211.23 195.557L207.422 202.1C206.494 203.662 206.152 205.371 206.494 206.641C206.836 207.861 207.813 208.447 209.033 208.105C209.326 208.008 209.668 207.91 209.961 207.715C210.889 207.178 211.816 206.201 212.5 205.029L216.309 198.486C216.65 197.9 217.09 197.412 217.578 197.119C217.871 197.07 218.018 197.021 218.164 196.973Z" fill="white"/>
<path d="M211.377 192.676L206.104 189.6C206.055 189.6 206.055 189.551 206.006 189.551C205.957 189.551 205.957 189.551 205.908 189.502H205.469C205.42 189.502 205.371 189.502 205.322 189.551C205.273 189.551 205.176 189.6 205.127 189.6C205.029 189.648 204.98 189.697 204.883 189.746C204.785 189.795 204.639 189.893 204.541 189.99L204.443 190.088L204.297 190.234L204.248 190.283L204.199 190.332L204.102 190.43C204.053 190.479 204.004 190.527 203.955 190.625L203.906 190.674V190.723L203.857 190.771C203.809 190.82 203.809 190.869 203.76 190.918C203.711 190.967 203.711 191.016 203.662 191.064V191.113L199.854 197.656C199.756 197.852 199.658 197.998 199.561 198.193C199.512 198.291 199.463 198.389 199.414 198.437C199.365 198.486 199.365 198.584 199.316 198.633C199.316 198.682 199.268 198.73 199.219 198.779C199.121 198.975 199.023 199.17 198.926 199.414V199.463C198.926 199.512 198.877 199.561 198.877 199.561C198.828 199.707 198.73 199.902 198.682 200.049C198.633 200.098 198.633 200.195 198.584 200.244C198.535 200.342 198.535 200.391 198.486 200.488C198.438 200.537 198.437 200.635 198.389 200.684C198.34 200.83 198.291 200.928 198.291 201.074C198.242 201.172 198.242 201.27 198.193 201.318C198.193 201.367 198.193 201.367 198.145 201.416C198.096 201.562 198.096 201.709 198.047 201.855C197.998 201.953 197.998 202.1 197.949 202.197V202.246C197.949 202.344 197.949 202.393 197.9 202.49C197.852 202.734 197.803 202.93 197.803 203.174V203.467C197.803 203.662 197.754 203.857 197.754 204.102V205.322C197.754 205.566 197.803 205.762 197.852 206.006V206.152C197.9 206.396 197.949 206.689 198.047 206.885C198.047 206.934 198.096 207.031 198.096 207.08C198.145 207.227 198.242 207.422 198.291 207.568C198.34 207.666 198.389 207.715 198.389 207.813C198.486 207.959 198.535 208.057 198.633 208.203C198.682 208.252 198.73 208.35 198.779 208.398C198.877 208.545 198.975 208.643 199.072 208.74L199.219 208.887C199.365 209.033 199.561 209.18 199.756 209.277L205.029 212.354C204.834 212.256 204.639 212.109 204.492 211.963L204.346 211.816C204.248 211.719 204.15 211.621 204.053 211.475C204.004 211.426 203.955 211.328 203.906 211.279C203.809 211.133 203.76 211.035 203.662 210.889C203.613 210.791 203.564 210.742 203.564 210.645C203.467 210.498 203.418 210.303 203.369 210.156C203.369 210.107 203.32 210.01 203.32 209.961C203.223 209.717 203.174 209.473 203.125 209.229V209.082C203.076 208.887 203.076 208.643 203.027 208.398V207.178C203.027 206.982 203.076 206.787 203.076 206.543C203.076 206.445 203.076 206.348 203.125 206.201C203.174 205.957 203.174 205.762 203.223 205.518C203.223 205.42 203.271 205.322 203.271 205.225C203.271 205.127 203.32 204.98 203.369 204.883C203.418 204.688 203.467 204.541 203.516 204.346C203.516 204.248 203.564 204.15 203.613 204.102C203.662 203.906 203.76 203.711 203.809 203.516C203.857 203.418 203.857 203.369 203.906 203.271C204.004 203.027 204.102 202.832 204.199 202.588C204.199 202.539 204.248 202.49 204.248 202.49C204.346 202.246 204.492 201.953 204.639 201.709C204.688 201.66 204.687 201.563 204.736 201.514C204.883 201.27 205.029 200.977 205.176 200.732L208.984 194.189C209.082 194.043 209.131 193.896 209.229 193.799V193.75C209.326 193.652 209.424 193.506 209.473 193.408L209.521 193.359C209.57 193.262 209.668 193.213 209.766 193.164L209.863 193.066C209.961 192.969 210.059 192.92 210.205 192.822C210.352 192.725 210.498 192.676 210.645 192.627C210.791 192.578 210.937 192.578 211.084 192.578C211.133 192.578 211.23 192.627 211.377 192.676Z" fill="#ACC5EA"/>
<path d="M228.955 170.947C231.738 172.51 231.787 177.637 229.053 182.471L225.244 189.014C224.902 189.6 224.463 190.039 224.023 190.283C223.584 190.527 223.096 190.625 222.754 190.43C222.07 190.039 222.07 188.77 222.705 187.549L226.514 181.006C227.441 179.443 227.783 177.734 227.441 176.465C227.1 175.244 226.123 174.658 224.902 175C224.609 175.098 224.268 175.195 223.975 175.391C223.047 175.928 222.119 176.904 221.436 178.076L217.627 184.619C217.285 185.205 216.846 185.693 216.357 185.937C216.211 186.035 216.064 186.084 215.918 186.133C215.283 186.279 214.795 186.035 214.648 185.4C214.502 184.766 214.648 183.936 215.137 183.154L218.945 176.611C220.313 174.268 222.119 172.412 223.926 171.387C225.732 170.41 227.588 170.166 228.955 170.947Z" fill="white"/>
<path d="M219.922 175.195C219.971 175.098 220.02 175.049 220.117 174.951C220.215 174.805 220.361 174.658 220.459 174.512C220.557 174.414 220.605 174.316 220.703 174.219C220.752 174.121 220.85 174.072 220.898 174.023C221.094 173.828 221.24 173.633 221.436 173.486C221.533 173.389 221.68 173.291 221.777 173.145C221.875 173.047 221.973 172.998 222.021 172.9C222.168 172.803 222.266 172.656 222.412 172.559C222.51 172.51 222.559 172.412 222.656 172.363C222.803 172.266 222.949 172.168 223.096 172.021C223.145 171.973 223.242 171.924 223.291 171.875C223.486 171.729 223.73 171.582 223.926 171.484C224.219 171.289 224.512 171.191 224.805 171.045C224.902 170.996 224.951 170.996 225.049 170.947C225.244 170.898 225.391 170.801 225.586 170.752C225.684 170.703 225.781 170.703 225.83 170.654C225.928 170.605 226.025 170.605 226.123 170.605C226.221 170.605 226.367 170.557 226.465 170.557H227.197C227.393 170.557 227.539 170.557 227.734 170.605H227.783C227.93 170.654 228.076 170.703 228.271 170.752C228.32 170.752 228.369 170.801 228.418 170.801C228.564 170.85 228.76 170.947 228.906 171.045L223.633 167.969C223.535 167.92 223.389 167.822 223.291 167.773C223.242 167.773 223.242 167.725 223.193 167.725C223.145 167.725 223.096 167.676 223.047 167.676C222.998 167.676 222.949 167.627 222.9 167.627C222.803 167.578 222.705 167.578 222.559 167.529H222.51C222.363 167.529 222.217 167.48 222.07 167.48H221.143C221.045 167.48 220.996 167.529 220.898 167.529C220.801 167.529 220.703 167.578 220.605 167.578H220.508C220.459 167.578 220.41 167.627 220.361 167.627C220.166 167.676 220.02 167.725 219.824 167.822C219.775 167.822 219.727 167.871 219.678 167.871C219.629 167.871 219.58 167.92 219.58 167.92L218.701 168.359C218.506 168.506 218.262 168.604 218.066 168.75C218.018 168.799 217.92 168.848 217.871 168.896C217.725 168.994 217.578 169.092 217.432 169.238C217.334 169.287 217.285 169.385 217.188 169.434C217.041 169.531 216.943 169.629 216.797 169.775C216.699 169.873 216.602 169.922 216.553 170.02C216.455 170.068 216.406 170.166 216.309 170.215L216.211 170.312C216.016 170.508 215.869 170.703 215.674 170.85L215.527 170.996L215.479 171.045C215.381 171.143 215.332 171.24 215.234 171.338C215.137 171.436 215.039 171.582 214.941 171.68C214.941 171.729 214.893 171.729 214.893 171.777C214.844 171.875 214.795 171.924 214.697 172.021C214.6 172.119 214.551 172.217 214.453 172.314C214.404 172.363 214.355 172.461 214.307 172.51C214.258 172.607 214.209 172.656 214.16 172.754C214.111 172.803 214.062 172.9 214.014 172.949C213.916 173.145 213.77 173.34 213.672 173.486L209.863 180.029C209.814 180.078 209.814 180.127 209.766 180.176C209.717 180.225 209.717 180.273 209.668 180.322C209.668 180.371 209.619 180.42 209.619 180.469C209.619 180.518 209.57 180.566 209.57 180.615C209.57 180.664 209.521 180.713 209.521 180.762C209.521 180.811 209.473 180.859 209.473 180.957C209.473 181.006 209.424 181.104 209.424 181.152C209.424 181.201 209.375 181.299 209.375 181.348V181.738C209.375 181.885 209.375 182.08 209.424 182.227C209.521 182.52 209.668 182.764 209.863 182.861L215.137 185.937C214.941 185.791 214.746 185.596 214.697 185.303C214.648 185.156 214.648 185.01 214.648 184.814V184.668C214.648 184.521 214.648 184.375 214.697 184.229C214.746 184.033 214.795 183.838 214.893 183.643L215.186 183.057L218.994 176.514C219.141 176.27 219.287 176.025 219.482 175.781C219.531 175.684 219.58 175.635 219.629 175.537C219.629 175.537 219.775 175.342 219.922 175.195Z" fill="#ACC5EA"/>
<path d="M255.811 334.277C256.104 334.766 256.494 335.107 256.934 335.352L264.16 339.551C262.988 338.867 262.207 337.402 262.207 335.303L254.98 331.104C255.029 332.422 255.322 333.496 255.811 334.277Z" fill="#C68620"/>
<path d="M344.678 221.826C344.531 221.729 344.434 221.68 344.287 221.631H344.238C344.189 221.631 344.141 221.582 344.141 221.582C344.092 221.582 344.043 221.533 343.945 221.533C343.896 221.533 343.799 221.484 343.75 221.484C343.701 221.484 343.652 221.484 343.652 221.436H343.604C343.457 221.436 343.359 221.387 343.213 221.387H342.285C342.236 221.387 342.188 221.387 342.139 221.436C342.041 221.436 341.943 221.484 341.846 221.484C341.797 221.484 341.748 221.484 341.699 221.533C341.65 221.533 341.602 221.582 341.553 221.582C341.406 221.631 341.26 221.68 341.064 221.729C341.016 221.729 340.967 221.777 340.918 221.777C340.869 221.777 340.869 221.826 340.82 221.826C340.527 221.924 340.283 222.07 339.99 222.217L261.475 267.529C261.133 267.725 260.791 267.969 260.449 268.213C260.4 268.262 260.352 268.311 260.254 268.359C259.961 268.604 259.619 268.896 259.326 269.189C259.277 269.189 259.277 269.238 259.229 269.238L259.082 269.385C258.936 269.531 258.789 269.678 258.643 269.873L258.496 270.02C258.447 270.068 258.398 270.117 258.398 270.166C258.301 270.264 258.203 270.361 258.154 270.459C258.105 270.508 258.057 270.605 258.008 270.654C257.959 270.703 257.91 270.752 257.861 270.85C257.812 270.947 257.715 270.996 257.666 271.094L257.52 271.24C257.471 271.338 257.373 271.436 257.324 271.533C257.275 271.582 257.227 271.68 257.178 271.729C257.178 271.777 257.129 271.777 257.129 271.826C257.031 272.021 256.885 272.217 256.787 272.412V272.461C256.787 272.51 256.738 272.559 256.738 272.559C256.641 272.705 256.592 272.852 256.494 272.949C256.445 272.998 256.445 273.096 256.396 273.145C256.348 273.193 256.348 273.291 256.299 273.34C256.25 273.389 256.25 273.438 256.201 273.535C256.152 273.682 256.055 273.828 256.006 273.975C256.006 274.023 255.957 274.023 255.957 274.072V274.121C255.859 274.316 255.811 274.512 255.713 274.707C255.713 274.756 255.713 274.756 255.664 274.805C255.615 274.854 255.615 274.951 255.566 275C255.518 275.098 255.469 275.195 255.469 275.293C255.42 275.391 255.42 275.439 255.42 275.537C255.371 275.635 255.371 275.732 255.322 275.83C255.322 275.879 255.273 275.928 255.273 276.025C255.225 276.123 255.225 276.221 255.225 276.318C255.176 276.416 255.176 276.562 255.127 276.66C255.127 276.709 255.127 276.758 255.078 276.807C255.078 276.904 255.029 276.953 255.029 277.051C254.98 277.246 254.98 277.393 254.932 277.588C254.932 277.637 254.932 277.686 254.883 277.734V277.881C254.834 278.271 254.785 278.662 254.785 279.053L254.932 331.152L262.158 335.352L262.012 283.252C262.012 282.861 262.061 282.471 262.109 282.08C262.109 281.982 262.109 281.885 262.158 281.787C262.207 281.592 262.207 281.445 262.256 281.25C262.256 281.152 262.305 281.006 262.305 280.859C262.354 280.762 262.354 280.615 262.402 280.518C262.451 280.371 262.5 280.225 262.549 280.029C262.598 279.932 262.598 279.834 262.647 279.736C262.695 279.541 262.744 279.395 262.842 279.199C262.891 279.15 262.891 279.053 262.939 279.004L263.232 278.271C263.232 278.223 263.281 278.223 263.281 278.174C263.379 277.979 263.477 277.734 263.574 277.539C263.623 277.49 263.623 277.393 263.672 277.344C263.77 277.148 263.867 276.953 264.014 276.758C264.014 276.709 264.062 276.66 264.062 276.66C264.209 276.416 264.355 276.221 264.502 275.977C264.551 275.928 264.6 275.83 264.648 275.781C264.746 275.635 264.844 275.488 264.99 275.293C265.039 275.195 265.137 275.146 265.186 275.049C265.283 274.902 265.381 274.805 265.479 274.658C265.576 274.561 265.674 274.463 265.723 274.316C265.82 274.219 265.869 274.121 265.967 274.023C266.113 273.877 266.26 273.73 266.406 273.535C266.455 273.438 266.553 273.389 266.65 273.291C266.943 272.998 267.236 272.705 267.578 272.461C267.627 272.412 267.676 272.363 267.773 272.314C268.115 272.07 268.457 271.826 268.799 271.631L347.314 226.318C347.607 226.172 347.852 226.025 348.145 225.928C348.242 225.879 348.34 225.879 348.389 225.83L348.828 225.684C348.926 225.635 349.023 225.635 349.121 225.586C349.219 225.586 349.316 225.537 349.414 225.537C349.512 225.537 349.658 225.488 349.756 225.488H350.488C350.635 225.488 350.83 225.537 350.977 225.537C351.025 225.537 351.074 225.537 351.074 225.586C351.221 225.635 351.318 225.635 351.416 225.684C351.465 225.684 351.514 225.732 351.514 225.732C351.66 225.781 351.807 225.879 351.953 225.928L344.678 221.826Z" fill="#C68620"/>
<path d="M347.217 226.465C350.879 224.365 353.857 226.074 353.857 230.225L354.004 282.324C354.004 286.523 351.025 291.65 347.412 293.75L268.896 339.062C265.234 341.162 262.256 339.453 262.256 335.303L262.109 283.203C262.109 279.004 265.088 273.877 268.701 271.777L347.217 226.465Z" fill="#FFCD2E"/>
<path d="M353.857 237.256L353.906 247.705L262.158 300.586L262.109 290.137L353.857 237.256Z" fill="white"/>
<path d="M344.531 269.775C345.264 269.385 345.752 269.727 345.605 270.557L342.676 284.668C342.578 285.254 342.139 285.84 341.602 286.133L322.607 297.07C321.875 297.461 321.387 297.119 321.533 296.289L324.463 282.178C324.561 281.592 325 281.006 325.537 280.713L344.531 269.775Z" fill="#C68620"/>
<path d="M325.977 299.316C325.977 299.268 325.928 299.219 325.928 299.17V298.828C325.928 298.779 325.928 298.682 325.977 298.584L323.096 296.924V297.51C323.096 297.559 323.145 297.607 323.145 297.656C323.145 297.656 323.145 297.705 323.193 297.705L323.34 297.852L326.221 299.512L326.074 299.365C326.025 299.365 326.025 299.316 325.977 299.316ZM346.826 270.312C346.826 270.312 346.777 270.312 346.777 270.264H346.191C346.143 270.264 346.094 270.313 345.996 270.361L327.002 281.299C326.953 281.348 326.855 281.396 326.807 281.445L326.758 281.494C326.709 281.543 326.66 281.543 326.611 281.592L326.514 281.689L326.465 281.738L326.367 281.836C326.367 281.836 326.367 281.885 326.318 281.885V281.934C326.318 281.982 326.27 281.982 326.27 282.031L326.221 282.08C326.221 282.129 326.172 282.129 326.172 282.178C326.172 282.227 326.123 282.227 326.123 282.275V282.324C326.123 282.373 326.123 282.373 326.074 282.422C326.074 282.422 326.074 282.471 326.025 282.471C326.025 282.52 326.025 282.52 325.977 282.568C325.977 282.617 325.977 282.617 325.928 282.666L322.998 296.777L325.879 298.438L328.809 284.326C328.809 284.277 328.857 284.18 328.857 284.131C328.857 284.082 328.906 283.984 328.955 283.936C329.004 283.887 329.004 283.789 329.053 283.74C329.102 283.691 329.15 283.643 329.15 283.545L329.297 283.398L329.346 283.35C329.395 283.301 329.395 283.252 329.443 283.252C329.492 283.203 329.541 283.154 329.59 283.154L329.639 283.105C329.687 283.057 329.785 283.008 329.834 282.959L348.828 272.021C348.926 271.973 348.975 271.924 349.072 271.924H349.121C349.17 271.924 349.268 271.875 349.316 271.875H349.512C349.561 271.875 349.609 271.924 349.658 271.924L346.826 270.312Z" fill="#E8CFAC"/>
<path d="M270.996 300.537C271.484 300.244 271.875 300.488 271.875 301.025V305.664C271.875 306.25 271.484 306.934 270.996 307.178L266.943 309.522C266.455 309.814 266.064 309.57 266.064 309.033V304.395C266.064 303.857 266.455 303.125 266.943 302.881L270.996 300.537Z" fill="#C68620"/>
<path d="M348.877 272.07C349.609 271.68 350.098 272.021 349.951 272.852L347.021 286.963C346.924 287.549 346.484 288.135 345.947 288.428L326.953 299.365C326.221 299.756 325.732 299.414 325.879 298.584L328.809 284.473C328.906 283.887 329.346 283.301 329.883 283.008L348.877 272.07Z" fill="white"/>
<path d="M269.922 311.426L266.846 309.668C266.846 309.961 266.943 310.156 267.09 310.254L270.166 312.012C270.02 311.914 269.922 311.719 269.922 311.426Z" fill="#E8CFAC"/>
<path d="M272.412 301.123C272.412 301.123 272.363 301.123 272.363 301.074H271.875C271.826 301.074 271.777 301.123 271.729 301.123L267.676 303.467C267.578 303.516 267.48 303.613 267.432 303.662H267.383L267.334 303.711L267.285 303.76L267.236 303.809C267.188 303.857 267.188 303.857 267.188 303.906V304.004C267.188 304.053 267.139 304.053 267.139 304.102C267.139 304.15 267.09 304.15 267.09 304.199C267.09 304.199 267.09 304.248 267.041 304.248C267.041 304.297 266.992 304.297 266.992 304.346C266.992 304.346 266.992 304.395 266.943 304.395C266.943 304.443 266.943 304.443 266.895 304.492C266.895 304.541 266.895 304.541 266.846 304.59V304.687C266.846 304.736 266.846 304.736 266.797 304.785V309.766L269.873 311.523V306.641C269.873 306.592 269.922 306.494 269.922 306.445C269.922 306.396 269.971 306.299 270.02 306.25C270.068 306.201 270.068 306.103 270.117 306.055C270.166 306.006 270.215 305.908 270.264 305.859L270.41 305.713L270.459 305.664L270.508 305.615C270.605 305.518 270.703 305.469 270.752 305.42L274.805 303.076C274.854 303.027 274.902 303.027 274.951 302.978H275C275.049 302.978 275.098 302.93 275.147 302.93H275.293C275.342 302.93 275.391 302.978 275.439 302.978L272.412 301.123Z" fill="#E8CFAC"/>
<path d="M282.617 294.336C283.105 294.043 283.496 294.287 283.496 294.824V299.463C283.496 300.049 283.105 300.732 282.617 300.977L278.564 303.32C278.076 303.613 277.686 303.369 277.686 302.832V298.193C277.686 297.656 278.076 296.924 278.564 296.68L282.617 294.336Z" fill="#C68620"/>
<path d="M274.854 302.979C275.342 302.686 275.732 302.93 275.732 303.467V308.105C275.732 308.691 275.342 309.375 274.854 309.619L270.801 311.963C270.312 312.256 269.922 312.012 269.922 311.475V306.836C269.922 306.299 270.312 305.566 270.801 305.322L274.854 302.979Z" fill="white"/>
<path d="M281.689 305.225L278.613 303.467C278.613 303.76 278.711 303.955 278.857 304.053L281.934 305.811C281.787 305.713 281.689 305.469 281.689 305.225Z" fill="#E8CFAC"/>
<path d="M284.18 294.873C284.18 294.873 284.131 294.873 284.131 294.824H283.643C283.594 294.824 283.545 294.873 283.496 294.873L279.443 297.217C279.346 297.266 279.248 297.363 279.199 297.412H279.15L279.102 297.461L279.053 297.51L279.004 297.559C278.955 297.607 278.955 297.607 278.955 297.656V297.754C278.955 297.803 278.906 297.803 278.906 297.852C278.906 297.9 278.857 297.9 278.857 297.949C278.857 297.949 278.857 297.998 278.809 297.998C278.809 298.047 278.76 298.047 278.76 298.096C278.76 298.096 278.76 298.145 278.711 298.145C278.711 298.193 278.711 298.193 278.662 298.242C278.662 298.291 278.662 298.291 278.613 298.34V298.438C278.613 298.486 278.613 298.486 278.564 298.535V303.516L281.641 305.273V300.391C281.641 300.342 281.689 300.244 281.689 300.195C281.689 300.146 281.738 300.049 281.787 300C281.836 299.951 281.836 299.854 281.885 299.805C281.934 299.756 281.982 299.658 282.031 299.609L282.178 299.463L282.227 299.414L282.275 299.365C282.373 299.268 282.471 299.219 282.52 299.17L286.572 296.826C286.621 296.777 286.67 296.777 286.719 296.729H286.768C286.816 296.729 286.865 296.68 286.914 296.68H287.061C287.109 296.68 287.158 296.729 287.207 296.729L284.18 294.873Z" fill="#E8CFAC"/>
<path d="M293.555 288.33C294.043 288.037 294.434 288.281 294.434 288.818V293.457C294.434 294.043 294.043 294.727 293.555 294.971L289.551 297.363C289.062 297.656 288.672 297.412 288.672 296.875V292.236C288.672 291.699 289.062 290.967 289.551 290.723L293.555 288.33Z" fill="#C68620"/>
<path d="M286.572 296.729C287.061 296.436 287.451 296.68 287.451 297.217V301.855C287.451 302.441 287.061 303.125 286.572 303.369L282.52 305.713C282.031 306.006 281.641 305.762 281.641 305.225V300.586C281.641 300.049 282.031 299.316 282.52 299.072L286.572 296.729Z" fill="white"/>
<path d="M292.773 299.219L289.697 297.461C289.697 297.754 289.795 297.949 289.941 298.047L293.018 299.805C292.871 299.707 292.773 299.512 292.773 299.219Z" fill="#E8CFAC"/>
<path d="M295.264 288.916C295.264 288.916 295.215 288.916 295.215 288.867H294.727C294.678 288.867 294.629 288.916 294.58 288.916L290.527 291.26C290.43 291.309 290.332 291.406 290.283 291.455H290.234L290.186 291.504L290.137 291.553L290.088 291.602C290.039 291.65 290.039 291.65 290.039 291.699V291.797C290.039 291.846 289.99 291.846 289.99 291.895C289.99 291.943 289.941 291.943 289.941 291.992C289.941 291.992 289.941 292.041 289.893 292.041C289.893 292.09 289.844 292.09 289.844 292.139C289.844 292.139 289.844 292.187 289.795 292.187C289.795 292.236 289.795 292.236 289.746 292.285C289.746 292.334 289.746 292.334 289.697 292.383V292.48C289.697 292.529 289.697 292.529 289.648 292.578V297.559L292.725 299.316V294.434C292.725 294.385 292.773 294.287 292.773 294.238C292.773 294.189 292.822 294.092 292.871 294.043C292.92 293.994 292.92 293.896 292.969 293.848C293.018 293.799 293.066 293.701 293.115 293.652L293.262 293.506L293.311 293.457L293.359 293.408C293.457 293.311 293.555 293.262 293.604 293.213L297.656 290.869C297.705 290.82 297.754 290.82 297.803 290.771H297.852C297.9 290.771 297.949 290.723 297.998 290.723H298.145C298.193 290.723 298.242 290.771 298.291 290.771L295.264 288.916Z" fill="#E8CFAC"/>
<path d="M297.705 290.772C298.193 290.479 298.584 290.723 298.584 291.26V295.898C298.584 296.484 298.193 297.168 297.705 297.412L293.652 299.756C293.164 300.049 292.773 299.805 292.773 299.268V294.629C292.773 294.092 293.164 293.359 293.652 293.115L297.705 290.772Z" fill="white"/>
</svg>
